<svg width="51" height="51" viewBox="0 0 51 51" fill="none" xmlns="http://www.w3.org/2000/svg">
<path d="M43.4679 7.53208L48.8102 8.59989C49.0971 8.65726 49.3329 8.86764 49.4158 9.15133C49.4577 9.28913 49.4614 9.4357 49.4266 9.57546C49.3918 9.71521 49.3198 9.84293 49.2182 9.94501L44.8417 14.3246C44.3173 14.8461 43.6082 15.1394 42.8687 15.1406H39.2381L30.1219 24.2601C30.2958 24.9168 30.3278 25.603 30.2157 26.273C30.1036 26.943 29.85 27.5815 29.4719 28.1458C29.0937 28.7102 28.5996 29.1874 28.0225 29.5458C27.4454 29.9043 26.7985 30.1356 26.125 30.2244C25.4515 30.3132 24.7668 30.2575 24.1166 30.0609C23.4663 29.8643 22.8654 29.5315 22.3538 29.0844C21.8423 28.6374 21.4319 28.0865 21.1499 27.4685C20.868 26.8504 20.721 26.1793 20.7188 25.5C20.7186 24.7663 20.8873 24.0424 21.2118 23.3844C21.5363 22.7264 22.0078 22.1519 22.59 21.7053C23.1721 21.2588 23.8492 20.9522 24.5688 20.8093C25.2885 20.6664 26.0314 20.6911 26.7399 20.8813L35.8594 11.7587V8.13451C35.8594 7.39501 36.1526 6.6842 36.6754 6.16145L41.055 1.78183C41.1571 1.68024 41.2848 1.60821 41.4246 1.57342C41.5643 1.53862 41.7109 1.54234 41.8487 1.5842C42.1324 1.66708 42.3427 1.90295 42.4001 2.18983L43.4679 7.53208Z" fill="#FF6868"/>
<path d="M6.37496 25.4995C6.37824 28.2343 6.96797 30.9365 8.1044 33.424C9.24082 35.9114 10.8975 38.1263 12.9627 39.919C15.0278 41.7118 17.4534 43.0408 20.0759 43.8164C22.6984 44.592 25.4567 44.7961 28.1647 44.4151C30.8728 44.034 33.4677 43.0766 35.7743 41.6075C38.0809 40.1383 40.0456 38.1915 41.5359 35.8985C43.0261 33.6055 44.0073 31.0195 44.4131 28.315C44.819 25.6106 44.6402 22.8505 43.8886 20.221C43.7831 19.9138 43.7412 19.5884 43.7655 19.2645C43.7898 18.9406 43.8798 18.625 44.0299 18.337C44.18 18.0489 44.3872 17.7945 44.6389 17.5891C44.8905 17.3836 45.1813 17.2316 45.4935 17.1422C45.8058 17.0527 46.133 17.0278 46.4552 17.0688C46.7774 17.1099 47.0879 17.2161 47.3678 17.381C47.6476 17.5458 47.891 17.766 48.0831 18.0279C48.2751 18.2898 48.4119 18.5881 48.485 18.9046C49.9402 23.9967 49.6638 29.4279 47.6991 34.3459C45.7345 39.264 42.1928 43.3907 37.6297 46.0787C33.0666 48.7667 27.7403 49.8638 22.4863 49.198C17.2324 48.5321 12.3481 46.141 8.59984 42.3997C4.85561 38.6523 2.46191 33.7676 1.79454 28.5124C1.12716 23.2573 2.22392 17.9293 4.91261 13.365C7.6013 8.80065 11.7297 5.25848 16.6495 3.29459C21.5694 1.3307 27.0022 1.05631 32.0949 2.51448C32.7013 2.69175 33.2129 3.10184 33.5178 3.65514C33.8228 4.20844 33.8963 4.85995 33.7224 5.46731C33.5484 6.07466 33.1411 6.58847 32.5895 6.89643C32.0379 7.2044 31.3868 7.28149 30.7785 7.11086C27.9307 6.2931 24.9318 6.14819 22.0184 6.68756C19.105 7.22693 16.3568 8.43582 13.9905 10.2189C11.6242 12.002 9.70456 14.3104 8.38295 16.9622C7.06135 19.6141 6.37395 22.5367 6.37496 25.4995Z" fill="#FF6868"/>
<path d="M15.9376 25.5002C15.9377 27.2424 16.4136 28.9515 17.3138 30.4432C18.214 31.9349 19.5044 33.1525 21.0458 33.9647C22.5871 34.7768 24.321 35.1528 26.0603 35.0519C27.7997 34.9511 29.4784 34.3773 30.9156 33.3924C32.3525 32.405 33.4922 31.0436 34.2113 29.4554C34.9304 27.8672 35.2016 26.1126 34.9956 24.3813C34.9399 23.9612 34.9972 23.5339 35.1615 23.1432C35.3259 22.7526 35.5914 22.4129 35.9307 22.159C36.27 21.9051 36.6708 21.7462 37.0919 21.6987C37.5131 21.6512 37.9392 21.7168 38.3266 21.8887C38.7138 22.0584 39.0491 22.3278 39.2983 22.6694C39.5475 23.011 39.7016 23.4125 39.745 23.8331C40.0913 26.7914 39.5082 29.7842 38.0764 32.396C36.6446 35.0078 34.4353 37.1092 31.755 38.4083C29.0748 39.7075 26.0566 40.1401 23.1193 39.646C20.182 39.152 17.4714 37.7558 15.3637 35.6513C13.256 33.5467 11.8557 30.8382 11.3571 27.9017C10.8586 24.9652 11.2866 21.9463 12.5817 19.2641C13.8768 16.5819 15.9748 14.3694 18.5844 12.9336C21.1941 11.4979 24.186 10.9102 27.1448 11.252C27.4616 11.2814 27.7694 11.3738 28.0501 11.5237C28.3307 11.6735 28.5787 11.8779 28.7793 12.1249C28.98 12.3718 29.1293 12.6563 29.2186 12.9617C29.3078 13.2671 29.3352 13.5873 29.2992 13.9034C29.2631 14.2196 29.1643 14.5253 29.0085 14.8028C28.8527 15.0802 28.6432 15.3238 28.392 15.5192C28.1409 15.7146 27.8533 15.8579 27.5461 15.9407C27.2389 16.0235 26.9182 16.0441 26.6029 16.0014C25.2631 15.8458 23.9055 15.9755 22.6193 16.3818C21.3331 16.7882 20.1475 17.462 19.1402 18.3591C18.1329 19.2562 17.3268 20.3562 16.7749 21.587C16.2229 22.8177 15.9375 24.1513 15.9376 25.5002Z" fill="#FF6868"/>
</svg>
