<svg width="69" height="47" viewBox="0 0 69 47" fill="none" xmlns="http://www.w3.org/2000/svg">
<path d="M8.50176 14.9508C8.50145 12.473 9.13265 10.034 10.3386 7.85313C11.5445 5.67226 13.2874 3.81794 15.4104 2.45695C17.5334 1.09597 19.97 0.271001 22.501 0.0562536C25.032 -0.158494 27.5781 0.243713 29.9102 1.2267C32.2423 2.20968 34.2872 3.74262 35.8612 5.68762C37.4352 7.63263 38.4887 9.92871 38.9272 12.3693C39.3656 14.81 39.1751 17.3186 38.3728 19.6696C37.5705 22.0207 36.1816 24.1403 34.3311 25.838C37.8201 27.49 40.8494 29.938 43.1624 32.9744C45.4753 36.0109 47.0037 39.5464 47.618 43.2813C47.6855 43.6969 47.6685 44.1214 47.5679 44.5306C47.4672 44.9398 47.2849 45.3257 47.0314 45.6662C46.7778 46.0067 46.458 46.2951 46.0901 46.5151C45.7223 46.735 45.3136 46.8822 44.8875 46.9481C44.4613 47.014 44.026 46.9974 43.6064 46.8992C43.1869 46.801 42.7912 46.6232 42.4421 46.3759C42.093 46.1287 41.7972 45.8167 41.5717 45.458C41.3462 45.0992 41.1954 44.7006 41.1278 44.285C40.4709 40.2714 38.3685 36.6177 35.198 33.98C32.0276 31.3423 27.9967 29.8933 23.8294 29.8933C19.6621 29.8933 15.6313 31.3423 12.4608 33.98C9.29034 36.6177 7.18791 40.2714 6.53106 44.285C6.4632 44.7006 6.31206 45.0991 6.08629 45.4578C5.86051 45.8165 5.56451 46.1282 5.21519 46.3753C4.86587 46.6224 4.47007 46.8 4.05039 46.8979C3.63071 46.9958 3.19536 47.0121 2.76921 46.9459C2.34306 46.8797 1.93445 46.7323 1.56671 46.5121C1.19897 46.2919 0.879295 46.0033 0.625946 45.6626C0.372598 45.3219 0.190534 44.9359 0.0901495 44.5265C-0.0102349 44.1172 -0.026974 43.6926 0.0408881 43.277C0.652998 39.5424 2.1806 36.0071 4.49386 32.9717C6.80712 29.9363 9.83762 27.4905 13.3278 25.8422C11.8038 24.4442 10.5894 22.7566 9.75941 20.8835C8.92942 19.0104 8.50142 16.9914 8.50176 14.9508ZM47.9158 8.54412C50.4602 8.54585 52.9494 9.26792 55.0813 10.6227C57.2131 11.9774 58.8959 13.9066 59.9253 16.176C60.9547 18.4454 61.2866 20.9575 60.8805 23.4073C60.4745 25.857 59.348 28.1392 57.6379 29.9767C60.305 31.2653 62.6747 33.0707 64.6023 35.2826C66.5299 37.4945 67.9749 40.0665 68.849 42.8414C69.0226 43.3798 69.047 43.9535 68.9198 44.5041C68.7925 45.0548 68.5182 45.5628 68.1246 45.9766C67.731 46.3904 67.2321 46.6953 66.6787 46.8603C66.1252 47.0253 65.5368 47.0445 64.9733 46.916C64.4098 46.7889 63.8908 46.519 63.4686 46.1335C63.0464 45.748 62.7361 45.2606 62.569 44.7207C61.783 42.2449 60.3523 40.0102 58.4166 38.2346C56.4808 36.4589 54.1062 35.2031 51.5243 34.5895C50.8072 34.4207 50.1692 34.0213 49.7132 33.4556C49.2571 32.89 49.0097 32.1911 49.0106 31.4716V29.9681C49.0102 29.3718 49.1805 28.7871 49.5024 28.28C49.8243 27.7729 50.2849 27.3635 50.8324 27.0979C52.16 26.4562 53.2262 25.3956 53.8578 24.0883C54.4894 22.781 54.6492 21.3038 54.3114 19.8967C53.9735 18.4897 53.1578 17.2353 51.9968 16.3374C50.8357 15.4396 49.3975 14.9509 47.9158 14.9508C47.0447 14.9508 46.2092 14.6133 45.5933 14.0126C44.9773 13.4118 44.6313 12.5971 44.6313 11.7475C44.6313 10.8979 44.9773 10.0831 45.5933 9.48236C46.2092 8.88161 47.0447 8.54412 47.9158 8.54412ZM23.8294 6.40855C22.663 6.38283 21.5031 6.58463 20.4178 7.00212C19.3325 7.4196 18.3436 8.04436 17.5093 8.8397C16.6749 9.63504 16.0119 10.5849 15.5592 11.6336C15.1064 12.6823 14.873 13.8086 14.8727 14.9465C14.8725 16.0844 15.1053 17.2108 15.5575 18.2597C16.0097 19.3086 16.6722 20.2589 17.5062 21.0546C18.3401 21.8503 19.3286 22.4756 20.4137 22.8936C21.4988 23.3116 22.6586 23.514 23.825 23.4888C26.1135 23.4395 28.2912 22.5183 29.892 20.9226C31.4928 19.3268 32.3895 17.1833 32.3901 14.9508C32.3906 12.7183 31.4951 10.5743 29.8951 8.97777C28.2951 7.38123 26.1179 6.45902 23.8294 6.40855Z" fill="#FF6868"/>
</svg>
