<svg width="55" height="55" viewBox="0 0 55 55" fill="none" xmlns="http://www.w3.org/2000/svg">
<path fill-rule="evenodd" clip-rule="evenodd" d="M38.4691 13.8502L35.1843 5.37977C32.4019 -1.79326 22.5972 -1.79326 19.8149 5.37977L16.5301 13.8502L7.73295 14.4675C0.28562 14.9905 -2.74521 24.6441 2.98521 29.5995L9.74798 35.4522L7.5977 44.3056C5.77589 51.8015 13.709 57.7657 20.0329 53.6591L27.4996 48.8066L34.9662 53.6591C41.2873 57.7686 49.2233 51.8015 47.4014 44.3056L45.2484 35.4522L52.0167 29.5995C57.7444 24.6441 54.7135 14.9905 47.269 14.4675L38.4691 13.8502ZM30.0611 7.50596C29.1337 5.11685 25.8655 5.11685 24.938 7.50596L21.0073 17.6482C20.8139 18.1469 20.4885 18.579 20.0686 18.8949C19.6487 19.2109 19.1513 19.3978 18.6334 19.4343L8.10559 20.1716C5.62131 20.346 4.61379 23.5667 6.52117 25.2185L14.6199 32.22C15.0179 32.5648 15.314 33.0188 15.4741 33.5298C15.6342 34.0408 15.652 34.5883 15.5253 35.1093L12.9527 45.703C12.3454 48.2007 14.9898 50.1898 17.0959 48.8209L26.0311 43.0139C26.471 42.7277 26.98 42.5759 27.4996 42.5759C28.0191 42.5759 28.5281 42.7277 28.9681 43.0139L37.9032 48.8209C40.0093 50.1926 42.6537 48.2007 42.0464 45.7059L39.4738 35.1121C39.3466 34.5907 39.3641 34.0427 39.5242 33.5311C39.6844 33.0195 39.9807 32.5651 40.3792 32.22L48.478 25.2185C50.3853 23.5638 49.3751 20.346 46.8935 20.1716L36.3685 19.4343C35.8506 19.3978 35.3532 19.2109 34.9333 18.8949C34.5134 18.579 34.188 18.1469 33.9946 17.6482L30.0584 7.50596H30.0611Z" fill="#FF6868"/>
</svg>
