<svg width="11" height="14" viewBox="0 0 11 14" fill="none" xmlns="http://www.w3.org/2000/svg">
<path d="M5.5 0C4.04182 0.00165422 2.64383 0.581654 1.61274 1.61276C0.581648 2.64386 0.00165421 4.04186 0 5.50006C0 10.2064 5 13.7608 5.21313 13.9095C5.2972 13.9684 5.39735 14 5.5 14C5.60265 14 5.7028 13.9684 5.78687 13.9095C6 13.7608 11 10.2064 11 5.50006C10.9983 4.04186 10.4184 2.64386 9.38726 1.61276C8.35617 0.581654 6.95818 0.00165422 5.5 0ZM5.5 3.50004C5.89556 3.50004 6.28224 3.61733 6.61114 3.8371C6.94004 4.05686 7.19638 4.36922 7.34776 4.73468C7.49913 5.10014 7.53874 5.50227 7.46157 5.89024C7.3844 6.27821 7.19392 6.63457 6.91421 6.91428C6.63451 7.19399 6.27814 7.38447 5.89018 7.46165C5.50222 7.53882 5.10009 7.49921 4.73463 7.34783C4.36918 7.19646 4.05682 6.94011 3.83706 6.61121C3.6173 6.2823 3.5 5.89562 3.5 5.50006C3.5 4.96962 3.71071 4.4609 4.08579 4.08583C4.46086 3.71075 4.96957 3.50004 5.5 3.50004Z" fill="#878788"/>
</svg>
