<svg width="235" height="16" viewBox="0 0 235 16" fill="none" xmlns="http://www.w3.org/2000/svg">
<path d="M3.808 12V2.32L4.4 2.912H0.24V0.799999H9.952V2.912H5.792L6.368 2.32V12H3.808ZM17.1205 12.128C16.1392 12.128 15.2752 11.936 14.5285 11.552C13.7925 11.168 13.2218 10.6453 12.8165 9.984C12.4112 9.312 12.2085 8.54933 12.2085 7.696C12.2085 6.832 12.4058 6.06933 12.8005 5.408C13.2058 4.736 13.7552 4.21333 14.4485 3.84C15.1418 3.456 15.9258 3.264 16.8005 3.264C17.6432 3.264 18.4005 3.44533 19.0725 3.808C19.7552 4.16 20.2938 4.672 20.6885 5.344C21.0832 6.00533 21.2805 6.8 21.2805 7.728C21.2805 7.824 21.2752 7.936 21.2645 8.064C21.2538 8.18133 21.2432 8.29333 21.2325 8.4H14.2405V6.944H19.9205L18.9605 7.376C18.9605 6.928 18.8698 6.53867 18.6885 6.208C18.5072 5.87733 18.2565 5.62133 17.9365 5.44C17.6165 5.248 17.2432 5.152 16.8165 5.152C16.3898 5.152 16.0112 5.248 15.6805 5.44C15.3605 5.62133 15.1098 5.88267 14.9285 6.224C14.7472 6.55467 14.6565 6.94933 14.6565 7.408V7.792C14.6565 8.26133 14.7578 8.67733 14.9605 9.04C15.1738 9.392 15.4672 9.664 15.8405 9.856C16.2245 10.0373 16.6725 10.128 17.1845 10.128C17.6432 10.128 18.0432 10.0587 18.3845 9.92C18.7365 9.78133 19.0565 9.57333 19.3445 9.296L20.6725 10.736C20.2778 11.184 19.7818 11.5307 19.1845 11.776C18.5872 12.0107 17.8992 12.128 17.1205 12.128ZM24.2074 12L28.0634 6.944L28.0154 8.32L24.3194 3.392H27.1194L29.4554 6.608L28.3994 6.64L30.8154 3.392H33.4714L29.7594 8.272V6.928L33.5994 12H30.7674L28.3194 8.576L29.3594 8.72L26.9274 12H24.2074ZM37.2281 12V3.392H45.7881V12H43.2921V4.88L43.8521 5.44H39.1481L39.7081 4.88V12H37.2281ZM54.6132 12.128C53.6959 12.128 52.8799 11.936 52.1652 11.552C51.4612 11.168 50.9012 10.6453 50.4852 9.984C50.0799 9.312 49.8772 8.54933 49.8772 7.696C49.8772 6.832 50.0799 6.06933 50.4852 5.408C50.9012 4.736 51.4612 4.21333 52.1652 3.84C52.8799 3.456 53.6959 3.264 54.6132 3.264C55.5199 3.264 56.3306 3.456 57.0452 3.84C57.7599 4.21333 58.3199 4.73067 58.7252 5.392C59.1306 6.05333 59.3332 6.82133 59.3332 7.696C59.3332 8.54933 59.1306 9.312 58.7252 9.984C58.3199 10.6453 57.7599 11.168 57.0452 11.552C56.3306 11.936 55.5199 12.128 54.6132 12.128ZM54.6132 10.08C55.0292 10.08 55.4026 9.984 55.7332 9.792C56.0639 9.6 56.3252 9.328 56.5172 8.976C56.7092 8.61333 56.8052 8.18667 56.8052 7.696C56.8052 7.19467 56.7092 6.768 56.5172 6.416C56.3252 6.064 56.0639 5.792 55.7332 5.6C55.4026 5.408 55.0292 5.312 54.6132 5.312C54.1972 5.312 53.8239 5.408 53.4932 5.6C53.1626 5.792 52.8959 6.064 52.6932 6.416C52.5012 6.768 52.4052 7.19467 52.4052 7.696C52.4052 8.18667 52.5012 8.61333 52.6932 8.976C52.8959 9.328 53.1626 9.6 53.4932 9.792C53.8239 9.984 54.1972 10.08 54.6132 10.08ZM63.45 12V3.392H66.058L69.306 9.28H68.266L71.738 3.392H74.074L74.106 12H71.85V5.952L72.234 6.208L69.274 11.168H68.218L65.242 6.032L65.706 5.92V12H63.45ZM82.9289 12.128C82.0115 12.128 81.1955 11.936 80.4809 11.552C79.7769 11.168 79.2169 10.6453 78.8009 9.984C78.3955 9.312 78.1929 8.54933 78.1929 7.696C78.1929 6.832 78.3955 6.06933 78.8009 5.408C79.2169 4.736 79.7769 4.21333 80.4809 3.84C81.1955 3.456 82.0115 3.264 82.9289 3.264C83.8355 3.264 84.6462 3.456 85.3609 3.84C86.0755 4.21333 86.6355 4.73067 87.0409 5.392C87.4462 6.05333 87.6489 6.82133 87.6489 7.696C87.6489 8.54933 87.4462 9.312 87.0409 9.984C86.6355 10.6453 86.0755 11.168 85.3609 11.552C84.6462 11.936 83.8355 12.128 82.9289 12.128ZM82.9289 10.08C83.3449 10.08 83.7182 9.984 84.0489 9.792C84.3795 9.6 84.6409 9.328 84.8329 8.976C85.0249 8.61333 85.1209 8.18667 85.1209 7.696C85.1209 7.19467 85.0249 6.768 84.8329 6.416C84.6409 6.064 84.3795 5.792 84.0489 5.6C83.7182 5.408 83.3449 5.312 82.9289 5.312C82.5129 5.312 82.1395 5.408 81.8089 5.6C81.4782 5.792 81.2115 6.064 81.0089 6.416C80.8169 6.768 80.7209 7.19467 80.7209 7.696C80.7209 8.18667 80.8169 8.61333 81.0089 8.976C81.2115 9.328 81.4782 9.6 81.8089 9.792C82.1395 9.984 82.5129 10.08 82.9289 10.08ZM97.6376 9.952L97.0936 10.528V3.392H99.5896V10.528L99.0136 9.952H102.982L102.422 10.528V3.392H104.902V12H91.7656V3.392H94.2456V10.528L93.6856 9.952H97.6376ZM103.782 13.712V11.424L104.342 12H102.358V9.952H106.102V13.712H103.782ZM114.353 6.144C115.484 6.15467 116.342 6.41067 116.929 6.912C117.526 7.40267 117.825 8.10133 117.825 9.008C117.825 9.95733 117.489 10.6987 116.817 11.232C116.145 11.7547 115.212 12.016 114.017 12.016L109.697 12V3.392H112.177V6.144H114.353ZM113.793 10.24C114.273 10.2507 114.641 10.1493 114.897 9.936C115.153 9.72267 115.281 9.40267 115.281 8.976C115.281 8.54933 115.153 8.24533 114.897 8.064C114.641 7.872 114.273 7.77067 113.793 7.76L112.177 7.744V10.24H113.793ZM128.716 12V3.392H131.196V6.752H134.94V3.392H137.436V12H134.94V8.784H131.196V12H128.716ZM147.377 12V10.32L147.217 9.952V6.944C147.217 6.41067 147.052 5.99467 146.721 5.696C146.401 5.39733 145.905 5.248 145.233 5.248C144.774 5.248 144.321 5.32267 143.873 5.472C143.436 5.61067 143.062 5.80267 142.753 6.048L141.857 4.304C142.326 3.97333 142.892 3.71733 143.553 3.536C144.214 3.35467 144.886 3.264 145.569 3.264C146.881 3.264 147.9 3.57333 148.625 4.192C149.35 4.81067 149.713 5.776 149.713 7.088V12H147.377ZM144.753 12.128C144.081 12.128 143.505 12.016 143.025 11.792C142.545 11.5573 142.177 11.2427 141.921 10.848C141.665 10.4533 141.537 10.0107 141.537 9.52C141.537 9.008 141.66 8.56 141.905 8.176C142.161 7.792 142.561 7.49333 143.105 7.28C143.649 7.056 144.358 6.944 145.233 6.944H147.521V8.4H145.505C144.918 8.4 144.513 8.496 144.289 8.688C144.076 8.88 143.969 9.12 143.969 9.408C143.969 9.728 144.092 9.984 144.337 10.176C144.593 10.3573 144.94 10.448 145.377 10.448C145.793 10.448 146.166 10.352 146.497 10.16C146.828 9.95733 147.068 9.664 147.217 9.28L147.601 10.432C147.42 10.9867 147.089 11.408 146.609 11.696C146.129 11.984 145.51 12.128 144.753 12.128ZM168.828 10.848V2.912H164.988L164.94 4.544C164.908 5.23733 164.86 5.89333 164.796 6.512C164.743 7.13067 164.658 7.696 164.54 8.208C164.423 8.70933 164.268 9.136 164.076 9.488C163.895 9.84 163.666 10.0907 163.388 10.24L160.62 9.888C161.004 9.89867 161.319 9.76533 161.564 9.488C161.82 9.21067 162.023 8.82133 162.172 8.32C162.322 7.808 162.428 7.21067 162.492 6.528C162.567 5.84533 162.62 5.104 162.652 4.304L162.78 0.799999H171.388V10.848H168.828ZM160.252 14.32L160.268 9.888H172.956V14.32H170.556V12H162.652V14.32H160.252ZM180.848 12.128C179.93 12.128 179.114 11.936 178.4 11.552C177.696 11.168 177.136 10.6453 176.72 9.984C176.314 9.312 176.112 8.54933 176.112 7.696C176.112 6.832 176.314 6.06933 176.72 5.408C177.136 4.736 177.696 4.21333 178.4 3.84C179.114 3.456 179.93 3.264 180.848 3.264C181.754 3.264 182.565 3.456 183.28 3.84C183.994 4.21333 184.554 4.73067 184.96 5.392C185.365 6.05333 185.568 6.82133 185.568 7.696C185.568 8.54933 185.365 9.312 184.96 9.984C184.554 10.6453 183.994 11.168 183.28 11.552C182.565 11.936 181.754 12.128 180.848 12.128ZM180.848 10.08C181.264 10.08 181.637 9.984 181.968 9.792C182.298 9.6 182.56 9.328 182.752 8.976C182.944 8.61333 183.04 8.18667 183.04 7.696C183.04 7.19467 182.944 6.768 182.752 6.416C182.56 6.064 182.298 5.792 181.968 5.6C181.637 5.408 181.264 5.312 180.848 5.312C180.432 5.312 180.058 5.408 179.728 5.6C179.397 5.792 179.13 6.064 178.928 6.416C178.736 6.768 178.64 7.19467 178.64 7.696C178.64 8.18667 178.736 8.61333 178.928 8.976C179.13 9.328 179.397 9.6 179.728 9.792C180.058 9.984 180.432 10.08 180.848 10.08ZM194.756 12.128C194.031 12.128 193.396 11.968 192.852 11.648C192.308 11.328 191.882 10.8427 191.572 10.192C191.274 9.53067 191.124 8.69867 191.124 7.696C191.124 6.68267 191.268 5.85067 191.556 5.2C191.844 4.54933 192.26 4.064 192.804 3.744C193.348 3.424 193.999 3.264 194.756 3.264C195.567 3.264 196.292 3.45067 196.932 3.824C197.583 4.18667 198.095 4.69867 198.468 5.36C198.852 6.02133 199.044 6.8 199.044 7.696C199.044 8.60267 198.852 9.38667 198.468 10.048C198.095 10.7093 197.583 11.2213 196.932 11.584C196.292 11.9467 195.567 12.128 194.756 12.128ZM189.668 15.104V3.392H192.052V5.152L192.004 7.712L192.164 10.256V15.104H189.668ZM194.324 10.08C194.74 10.08 195.108 9.984 195.428 9.792C195.759 9.6 196.02 9.328 196.212 8.976C196.415 8.61333 196.516 8.18667 196.516 7.696C196.516 7.19467 196.415 6.768 196.212 6.416C196.02 6.064 195.759 5.792 195.428 5.6C195.108 5.408 194.74 5.312 194.324 5.312C193.908 5.312 193.535 5.408 193.204 5.6C192.874 5.792 192.612 6.064 192.42 6.416C192.228 6.768 192.132 7.19467 192.132 7.696C192.132 8.18667 192.228 8.61333 192.42 8.976C192.612 9.328 192.874 9.6 193.204 9.792C193.535 9.984 193.908 10.08 194.324 10.08ZM207.226 12.128C206.308 12.128 205.492 11.936 204.778 11.552C204.074 11.168 203.514 10.6453 203.098 9.984C202.692 9.312 202.49 8.54933 202.49 7.696C202.49 6.832 202.692 6.06933 203.098 5.408C203.514 4.736 204.074 4.21333 204.778 3.84C205.492 3.456 206.308 3.264 207.226 3.264C208.132 3.264 208.943 3.456 209.658 3.84C210.372 4.21333 210.932 4.73067 211.338 5.392C211.743 6.05333 211.946 6.82133 211.946 7.696C211.946 8.54933 211.743 9.312 211.338 9.984C210.932 10.6453 210.372 11.168 209.658 11.552C208.943 11.936 208.132 12.128 207.226 12.128ZM207.226 10.08C207.642 10.08 208.015 9.984 208.346 9.792C208.676 9.6 208.938 9.328 209.13 8.976C209.322 8.61333 209.418 8.18667 209.418 7.696C209.418 7.19467 209.322 6.768 209.13 6.416C208.938 6.064 208.676 5.792 208.346 5.6C208.015 5.408 207.642 5.312 207.226 5.312C206.81 5.312 206.436 5.408 206.106 5.6C205.775 5.792 205.508 6.064 205.306 6.416C205.114 6.768 205.018 7.19467 205.018 7.696C205.018 8.18667 205.114 8.61333 205.306 8.976C205.508 9.328 205.775 9.6 206.106 9.792C206.436 9.984 206.81 10.08 207.226 10.08ZM216.063 12V3.392H222.959V5.44H217.983L218.543 4.896V12H216.063ZM230.53 12.128C229.549 12.128 228.685 11.936 227.938 11.552C227.202 11.168 226.631 10.6453 226.226 9.984C225.821 9.312 225.618 8.54933 225.618 7.696C225.618 6.832 225.815 6.06933 226.21 5.408C226.615 4.736 227.165 4.21333 227.858 3.84C228.551 3.456 229.335 3.264 230.21 3.264C231.053 3.264 231.81 3.44533 232.482 3.808C233.165 4.16 233.703 4.672 234.098 5.344C234.493 6.00533 234.69 6.8 234.69 7.728C234.69 7.824 234.685 7.936 234.674 8.064C234.663 8.18133 234.653 8.29333 234.642 8.4H227.65V6.944H233.33L232.37 7.376C232.37 6.928 232.279 6.53867 232.098 6.208C231.917 5.87733 231.666 5.62133 231.346 5.44C231.026 5.248 230.653 5.152 230.226 5.152C229.799 5.152 229.421 5.248 229.09 5.44C228.77 5.62133 228.519 5.88267 228.338 6.224C228.157 6.55467 228.066 6.94933 228.066 7.408V7.792C228.066 8.26133 228.167 8.67733 228.37 9.04C228.583 9.392 228.877 9.664 229.25 9.856C229.634 10.0373 230.082 10.128 230.594 10.128C231.053 10.128 231.453 10.0587 231.794 9.92C232.146 9.78133 232.466 9.57333 232.754 9.296L234.082 10.736C233.687 11.184 233.191 11.5307 232.594 11.776C231.997 12.0107 231.309 12.128 230.53 12.128Z" fill="white"/>
</svg>
