<svg width="13" height="13" viewBox="0 0 13 13" fill="none" xmlns="http://www.w3.org/2000/svg">
<path d="M12.9993 9.69222V12.246C12.9994 12.4288 12.9301 12.6049 12.8054 12.7387C12.6808 12.8725 12.51 12.954 12.3276 12.9668C12.0123 12.9889 11.7547 13 11.5549 13C5.17299 13 0 7.82672 0 1.44444C0 1.24511 0.0110735 0.987519 0.0332204 0.671667C0.0460192 0.489265 0.127524 0.318508 0.261288 0.193851C0.395052 0.0691938 0.571118 -8.26461e-05 0.753958 1.85307e-07H3.30759C3.39717 -9.05193e-05 3.48359 0.0331204 3.55005 0.0931814C3.61651 0.153242 3.65828 0.235865 3.66724 0.325C3.68361 0.49063 3.69902 0.623519 3.71346 0.723667C3.85697 1.72534 4.15109 2.69955 4.58586 3.61328C4.65446 3.75772 4.60969 3.93033 4.4797 4.02278L2.92123 5.13645C3.8743 7.35676 5.64365 9.12621 7.86384 10.0793L8.976 8.52367C9.02127 8.45988 9.0876 8.41412 9.16329 8.39443C9.23899 8.37475 9.31921 8.38241 9.38981 8.41606C10.3034 8.85002 11.2773 9.14343 12.2785 9.28633C12.3787 9.30078 12.5111 9.31618 12.6757 9.33256C12.7647 9.34168 12.8472 9.38352 12.9071 9.44997C12.967 9.51642 12.9994 9.60275 12.9993 9.69222Z" fill="#FF6060"/>
</svg>
