<svg width="30" height="30" viewBox="0 0 30 30" fill="none" xmlns="http://www.w3.org/2000/svg">
<path d="M25.5 4.34324C24.1246 2.96135 22.4865 1.86565 20.6813 1.11999C18.876 0.374337 16.9396 -0.00636276 14.985 8.04383e-05C6.795 8.04383e-05 0.12 6.64169 0.12 14.7907C0.12 17.4026 0.81 19.9398 2.1 22.1786L0 29.85L7.875 27.7904C10.05 28.9694 12.495 29.5963 14.985 29.5963C23.175 29.5963 29.85 22.9547 29.85 14.8056C29.85 10.8505 28.305 7.13421 25.5 4.34324ZM14.985 27.0889C12.765 27.0889 10.59 26.4919 8.685 25.3725L8.235 25.1039L3.555 26.3277L4.8 21.7905L4.5 21.3279C3.26632 19.3683 2.61139 17.103 2.61 14.7907C2.61 8.01478 8.16 2.49255 14.97 2.49255C18.27 2.49255 21.375 3.7761 23.7 6.10439C24.8514 7.24445 25.7639 8.60065 26.3844 10.0943C27.005 11.588 27.3213 13.1894 27.315 14.8056C27.345 21.5816 21.795 27.0889 14.985 27.0889ZM21.765 17.8951C21.39 17.716 19.56 16.8205 19.23 16.6862C18.885 16.5668 18.645 16.5071 18.39 16.8653C18.135 17.2384 17.43 18.0742 17.22 18.313C17.01 18.5667 16.785 18.5966 16.41 18.4026C16.035 18.2235 14.835 17.8205 13.425 16.5668C12.315 15.5817 11.58 14.3728 11.355 13.9997C11.145 13.6266 11.325 13.4325 11.52 13.2385C11.685 13.0743 11.895 12.8057 12.075 12.5967C12.255 12.3878 12.33 12.2236 12.45 11.9848C12.57 11.7311 12.51 11.5222 12.42 11.3431C12.33 11.164 11.58 9.34311 11.28 8.59686C10.98 7.88046 10.665 7.97001 10.44 7.95508H9.72C9.465 7.95508 9.075 8.04463 8.73 8.41776C8.4 8.79088 7.44 9.68638 7.44 11.5072C7.44 13.3281 8.775 15.0892 8.955 15.328C9.135 15.5817 11.58 19.313 15.3 20.91C16.185 21.298 16.875 21.5219 17.415 21.686C18.3 21.9696 19.11 21.9248 19.755 21.8353C20.475 21.7308 21.96 20.9398 22.26 20.0742C22.575 19.2085 22.575 18.4772 22.47 18.313C22.365 18.1488 22.14 18.0742 21.765 17.8951Z" fill="#FF6868"/>
</svg>
