<svg width="29" height="29" viewBox="0 0 29 29" fill="none" xmlns="http://www.w3.org/2000/svg">
<path d="M8.44023 6.91263C8.16576 6.87565 7.88581 6.92649 7.6472 7.05667H7.62652C7.07273 7.35561 6.57358 7.73201 6.14826 8.17499C5.79384 8.55139 5.60185 8.93187 5.55164 9.29876C5.52211 9.51617 5.54278 9.73631 5.61219 9.94421L5.63877 9.9578C6.0375 11.0354 6.55733 12.0722 7.19235 13.0478C8.01151 14.418 9.0191 15.6853 10.1902 16.8186L10.2257 16.8648L10.2818 16.9029L10.3157 16.9395L10.3571 16.9721C11.5931 18.0529 12.9737 18.9844 14.4655 19.7442C16.1712 20.5989 17.2064 21.0025 17.8281 21.171V21.1791C18.0098 21.2308 18.1752 21.2539 18.3421 21.2539C18.8718 21.2189 19.3733 21.0207 19.7657 20.6913C20.2456 20.3 20.6518 19.8393 20.9678 19.327V19.3175C21.2646 18.8012 21.1642 18.3147 20.7359 17.9845C19.8764 17.2921 18.9461 16.6777 17.9581 16.1501C17.2965 15.8199 16.6246 16.0196 16.3528 16.3539L15.7725 17.0279C15.4742 17.3621 14.9336 17.3159 14.9336 17.3159L14.9189 17.3241C10.8858 16.377 9.80921 12.6198 9.80921 12.6198C9.80921 12.6198 9.759 12.1088 10.1326 11.8479L10.8592 11.3098C11.2077 11.0489 11.4499 10.432 11.0763 9.82327C10.5041 8.91478 9.83798 8.05927 9.08706 7.26865C8.92281 7.083 8.69277 6.95648 8.43728 6.91127M15.2556 5.2793C15.0598 5.2793 14.8719 5.35088 14.7335 5.4783C14.595 5.60571 14.5172 5.77852 14.5172 5.95872C14.5172 6.13891 14.595 6.31173 14.7335 6.43914C14.8719 6.56656 15.0598 6.63814 15.2556 6.63814C17.1222 6.63814 18.6729 7.19934 19.9001 8.27555C20.5307 8.86393 21.0224 9.56102 21.3444 10.3247C21.6678 11.0897 21.8155 11.9064 21.7771 12.7244C21.7688 12.9046 21.8387 13.0804 21.9714 13.2132C22.1041 13.346 22.2886 13.4248 22.4844 13.4324C22.6803 13.4399 22.8714 13.3756 23.0156 13.2535C23.1599 13.1315 23.2456 12.9617 23.2538 12.7815C23.2979 11.7753 23.1164 10.7716 22.7207 9.83278C22.3232 8.88918 21.7178 8.03145 20.9427 7.31349L20.9279 7.2999C19.4053 5.96144 17.4796 5.2793 15.2556 5.2793Z" fill="#FF6868"/>
<path d="M15.2037 7.51405C15.0079 7.51405 14.8201 7.58564 14.6816 7.71305C14.5431 7.84047 14.4653 8.01328 14.4653 8.19348C14.4653 8.37367 14.5431 8.54648 14.6816 8.6739C14.8201 8.80132 15.0079 8.8729 15.2037 8.8729H15.2288C16.5757 8.96122 17.5562 9.37431 18.2429 10.0524C18.9474 10.7508 19.3121 11.6191 19.2841 12.6926C19.2796 12.8728 19.353 13.0473 19.4883 13.1776C19.6236 13.308 19.8097 13.3835 20.0055 13.3877C20.2013 13.3918 20.3909 13.3242 20.5326 13.1997C20.6742 13.0752 20.7564 12.9041 20.7609 12.7239C20.7963 11.3147 20.3031 10.0986 19.3254 9.12836V9.12564C18.3256 8.13912 16.9537 7.61733 15.3027 7.51541L15.2776 7.5127L15.2037 7.51405Z" fill="#FF6868"/>
<path d="M15.1754 9.78974C15.0765 9.78172 14.977 9.7921 14.8826 9.82026C14.7883 9.84843 14.701 9.8938 14.6262 9.95367C14.5513 10.0135 14.4903 10.0867 14.4468 10.1687C14.4033 10.2508 14.3782 10.34 14.3731 10.4312C14.3679 10.5223 14.3828 10.6135 14.4167 10.6993C14.4507 10.785 14.5031 10.8636 14.5709 10.9303C14.6386 10.997 14.7202 11.0505 14.8109 11.0875C14.9015 11.1245 14.9994 11.1444 15.0986 11.1459C15.7159 11.1758 16.1102 11.347 16.3583 11.5766C16.6078 11.8076 16.7939 12.1786 16.8279 12.7588C16.8297 12.85 16.8515 12.9399 16.8919 13.0232C16.9323 13.1064 16.9905 13.1814 17.0631 13.2435C17.1356 13.3056 17.221 13.3537 17.3142 13.3848C17.4073 13.4159 17.5063 13.4295 17.6053 13.4246C17.7043 13.4198 17.8012 13.3967 17.8902 13.3567C17.9793 13.3166 18.0587 13.2605 18.1236 13.1917C18.1886 13.1228 18.2379 13.0426 18.2685 12.9559C18.2991 12.8692 18.3104 12.7776 18.3017 12.6868C18.2545 11.8715 17.9768 11.1513 17.4083 10.6214C16.8367 10.0914 16.0585 9.83322 15.1754 9.78974Z" fill="#FF6868"/>
<path fill-rule="evenodd" clip-rule="evenodd" d="M7.11418 0.724906C11.8134 -0.241635 16.6866 -0.241635 21.3858 0.724906L21.8864 0.826819C23.2598 1.11011 24.521 1.73783 25.5304 2.64039C26.5397 3.54295 27.2576 4.68508 27.6046 5.94015C28.7985 10.2651 28.7985 14.796 27.6046 19.1209C27.2576 20.376 26.5397 21.5181 25.5304 22.4207C24.521 23.3233 23.2598 23.951 21.8864 24.2343L21.3843 24.3362C18.441 24.9409 15.4211 25.1691 12.4099 25.0142L8.49202 28.2401C8.34431 28.3618 8.16382 28.4448 7.96937 28.4804C7.77492 28.516 7.57365 28.5029 7.38657 28.4425C7.19949 28.3822 7.03345 28.2767 6.90579 28.1371C6.77813 27.9975 6.69353 27.829 6.66081 27.649L6.0125 24.0862C4.76966 23.7296 3.6468 23.0861 2.75102 22.2169C1.85524 21.3477 1.21641 20.2818 0.895447 19.1209C-0.298482 14.796 -0.298482 10.2651 0.895447 5.94015C1.2424 4.68508 1.96034 3.54295 2.96965 2.64039C3.97896 1.73783 5.24021 1.11011 6.61355 0.826819L7.11418 0.724906ZM20.9029 2.71289C16.5217 1.81172 11.9783 1.81172 7.59709 2.71289L7.09498 2.81617C6.12172 3.01752 5.22801 3.46279 4.5128 4.10266C3.79758 4.74253 3.28877 5.55204 3.04269 6.44156C1.93952 10.4374 1.93952 14.6237 3.04269 18.6195C3.28888 19.5092 3.79792 20.3189 4.51341 20.9587C5.22891 21.5986 6.12293 22.0438 7.09646 22.2449L7.22937 22.2721C7.44438 22.3163 7.64016 22.4186 7.79169 22.5658C7.94322 22.7129 8.0436 22.8983 8.08 23.0983L8.51417 25.4871L11.2787 23.2111C11.3891 23.1199 11.5183 23.0501 11.6586 23.0057C11.7989 22.9614 11.9474 22.9434 12.0954 22.9529C15.0476 23.1447 18.0144 22.941 20.9029 22.3482L21.4035 22.2449C22.3771 22.0438 23.2711 21.5986 23.9866 20.9587C24.7021 20.3189 25.2111 19.5092 25.4573 18.6195C26.559 14.6245 26.559 10.4379 25.4573 6.44156C25.2111 5.55187 24.7021 4.74223 23.9866 4.10235C23.2711 3.46246 22.3771 3.0173 21.4035 2.81617L20.9029 2.71289Z" fill="#FF6868"/>
</svg>
