<svg xmlns="http://www.w3.org/2000/svg" version="1.1" xmlns:xlink="http://www.w3.org/1999/xlink" xmlns:svgjs="http://svgjs.dev/svgjs" width="193" height="193"><svg width="193" height="193" viewBox="0 0 193 193" fill="none" xmlns="http://www.w3.org/2000/svg">
<g clip-path="url(#clip0_294_12)">
<path d="M96.5 193C149.795 193 193 149.795 193 96.5C193 43.2045 149.795 0 96.5 0C43.2045 0 0 43.2045 0 96.5C0 149.795 43.2045 193 96.5 193Z" fill="#191919"></path>
<path d="M96.5002 187.639C146.835 187.639 187.639 146.835 187.639 96.5002C187.639 46.1656 146.835 5.36133 96.5002 5.36133C46.1656 5.36133 5.36133 46.1656 5.36133 96.5002C5.36133 146.835 46.1656 187.639 96.5002 187.639Z" fill="#313131"></path>
<path d="M96.5001 166.195C134.991 166.195 166.195 134.991 166.195 96.5001C166.195 58.0089 134.991 26.8057 96.5001 26.8057C58.0089 26.8057 26.8057 58.0089 26.8057 96.5001C26.8057 134.991 58.0089 166.195 96.5001 166.195Z" fill="#AEB3B2"></path>
<path d="M96.5001 155.472C129.07 155.472 155.472 129.069 155.472 96.4996C155.472 63.9301 129.07 37.5273 96.5001 37.5273C63.9306 37.5273 37.5278 63.9301 37.5278 96.4996C37.5278 129.069 63.9306 155.472 96.5001 155.472Z" fill="#313131"></path>
<path d="M96.5 144.75C123.148 144.75 144.75 123.148 144.75 96.5C144.75 69.8523 123.148 48.25 96.5 48.25C69.8523 48.25 48.25 69.8523 48.25 96.5C48.25 123.148 69.8523 144.75 96.5 144.75Z" fill="#787878"></path>
<path d="M96.5002 128.666C114.265 128.666 128.667 114.265 128.667 96.4997C128.667 78.7345 114.265 64.333 96.5002 64.333C78.735 64.333 64.3335 78.7345 64.3335 96.4997C64.3335 114.265 78.735 128.666 96.5002 128.666Z" fill="#313131"></path>
<path d="M96.5001 107.222C102.422 107.222 107.222 102.421 107.222 96.4996C107.222 90.5778 102.422 85.7773 96.5001 85.7773C90.5783 85.7773 85.7778 90.5778 85.7778 96.4996C85.7778 102.421 90.5783 107.222 96.5001 107.222Z" fill="#AEB3B2"></path>
<path d="M96.4998 101.861C99.4606 101.861 101.861 99.4606 101.861 96.4998C101.861 93.5389 99.4606 91.1387 96.4998 91.1387C93.5389 91.1387 91.1387 93.5389 91.1387 96.4998C91.1387 99.4606 93.5389 101.861 96.4998 101.861Z" fill="#E1E1E1"></path>
<path d="M104.381 116.55C101.518 111.484 93.9697 110.288 90.0347 114.765C82.1485 125.487 75.2862 136.826 69.8876 149.055C70.7704 149.509 71.6675 149.941 72.5789 150.352C78.7924 144.75 84.4001 138.654 89.6808 132.253H103.325C108.611 138.649 114.213 144.734 120.421 150.341C121.333 149.93 122.232 149.496 123.118 149.039C118.03 137.507 111.501 126.94 104.381 116.55ZM155.151 90.3719C155.049 89.3801 154.85 88.4097 154.7 87.434C141.405 88.7904 128.506 91.814 115.87 96.001C110.391 98.3599 109.206 105.908 113.13 110.192C120.813 120.18 128.854 129.663 138.269 138.08C138.976 137.367 139.625 136.595 140.295 135.85C136.885 128.227 132.832 121.032 128.388 114.041L132.613 101.067C140.327 98.0168 147.902 94.5536 155.151 90.3719ZM44.0685 69.6351C54.9784 75.9773 66.4726 80.6897 78.3367 84.9089C83.537 87.3536 90.5118 83.7884 90.9889 77.9234C91.0694 64.6171 89.9542 51.4073 87.1343 38.3477C86.1371 38.5085 85.14 38.6425 84.1589 38.8516C82.9787 44.5674 82.1214 50.3451 81.5909 56.1573C81.3336 58.559 81.1298 61.0573 80.969 63.5824L69.9305 71.5812C61.9103 69.5172 53.815 67.8927 45.516 67.0028C45.0121 67.8642 44.5296 68.7416 44.0685 69.6351ZM112.466 85.5201C125.15 81.4832 137.373 76.3419 148.926 69.619C148.462 68.719 147.972 67.8322 147.458 66.9599C141.614 67.5818 135.904 68.6165 130.264 69.8603C127.9 70.3535 125.461 70.9325 123.011 71.5597L111.988 63.5342C111.474 55.2512 110.514 47.0327 108.782 38.8409C107.817 38.6372 106.826 38.5031 105.845 38.3477C103.185 50.6782 102.253 63.0624 101.91 75.6503C101.191 81.3438 106.74 86.8764 112.466 85.5201ZM54.7264 138.08C64.1405 129.663 72.1768 120.18 79.8646 110.192C83.7943 105.903 82.5988 98.3599 77.1305 96.001C64.4997 91.814 51.5955 88.7904 38.2999 87.4394C38.1498 88.4204 37.9515 89.3854 37.8496 90.3772C45.0978 94.5589 52.6731 98.0222 60.3877 101.067L64.6123 114.041C60.1679 121.032 56.1203 128.227 52.7052 135.85C53.3754 136.595 54.0187 137.367 54.7264 138.08Z" fill="#AEB3B2"></path>
<path d="M120.464 102.757C126.634 100.713 132.758 98.5318 138.831 96.2162C144.295 94.1489 149.693 91.9104 155.016 89.504C154.963 89.0323 154.872 88.5766 154.802 88.1101C142.033 90.8074 129.431 94.2425 117.06 98.3981C113.446 99.7813 112.337 105.158 114.846 108.005C115.114 108.402 115.918 109.404 116.191 109.817C123.305 119.371 130.731 128.71 138.729 137.566C139.067 137.218 139.378 136.848 139.705 136.494C133.358 125.488 126.243 114.959 118.947 104.596C118.304 103.432 119.563 103.046 120.464 102.757ZM53.2894 136.5C53.6164 136.853 53.9273 137.229 54.2651 137.572C62.2585 128.715 69.689 119.376 76.8032 109.823C77.082 109.421 77.8861 108.402 78.1488 108.011C80.6686 105.164 79.5427 99.7866 75.9401 98.4035C63.5687 94.2479 50.9668 90.8128 38.1978 88.1155C38.1335 88.5819 38.0424 89.0376 37.9834 89.5094C43.3284 91.9004 48.711 94.1789 54.174 96.2215C60.2478 98.5356 66.3717 100.716 72.5411 102.762C73.4418 103.046 74.6963 103.438 74.053 104.601C66.7565 114.964 59.6369 125.493 53.2894 136.5ZM103.083 119.349C102.789 118.958 102.07 117.88 101.775 117.51C99.8453 114.235 94.3823 113.64 91.9537 116.642C84.1798 127.121 77.0196 138.042 70.5093 149.35C70.931 149.561 71.3563 149.766 71.7852 149.967C75.7119 145.653 79.5023 141.217 83.1508 136.666C87.2286 131.603 91.195 126.452 95.0471 121.215C95.5939 120.448 96.3552 119.371 97.2612 120.347C104.874 130.495 112.69 140.526 121.204 149.967C121.64 149.763 122.072 149.554 122.501 149.339C116.556 139.009 109.967 129.064 103.083 119.349ZM44.3631 69.0139C55.2623 73.8871 66.4509 78.0688 77.7414 81.8805C80.3791 82.8723 83.2044 83.7462 85.8528 81.843C88.4851 79.9184 88.5226 76.9537 88.3939 74.1391C88.2653 62.2267 87.7452 50.3036 86.4746 38.4395C86.0029 38.5199 85.5257 38.5628 85.0593 38.6593C83.7512 50.9523 83.2526 63.2989 83.1454 75.6402C83.1561 76.5838 83.1722 77.9026 81.8641 77.6453C69.7319 73.9032 57.5032 70.3863 45.0601 67.7486L44.3631 69.0139ZM104.606 74.1445C104.617 74.6323 104.563 75.9297 104.584 76.4015C104.22 80.1864 108.289 83.8749 112.02 82.8777C124.48 78.9645 136.703 74.3318 148.626 69.0031L147.945 67.7647C142.225 68.9476 136.543 70.31 130.908 71.8499C124.633 73.5483 118.397 75.3841 112.203 77.3558C111.307 77.656 110.058 78.0795 109.897 76.7553C109.704 64.0548 109.27 51.3222 107.93 38.6646C107.469 38.5735 106.986 38.5306 106.52 38.4502C105.265 50.3143 104.745 62.2321 104.606 74.1445Z" fill="#E1E1E1"></path>
</g>
<defs>
<clipPath id="SvgjsClipPath1001">
<rect width="193" height="193" fill="white"></rect>
</clipPath>
</defs>
</svg><style>@media (prefers-color-scheme: light) { :root { filter: none; } }
@media (prefers-color-scheme: dark) { :root { filter: none; } }
</style></svg>